<?xml version="1.0" standalone="no"?>
<!DOCTYPE svg PUBLIC "-//W3C//DTD SVG 20010904//EN"
 "http://www.w3.org/TR/2001/REC-SVG-20010904/DTD/svg10.dtd">
<svg version="1.0" xmlns="http://www.w3.org/2000/svg"
 width="200.000000pt" height="99.000000pt" viewBox="0 0 200.000000 99.000000"
 preserveAspectRatio="xMidYMid meet">

<g transform="translate(0.000000,99.000000) scale(0.100000,-0.100000)"
fill="#000000" stroke="none">
<path d="M30 820 l0 -140 30 0 30 0 0 99 c0 71 4 102 14 110 10 8 255 10 907
9 l894 -3 3 -107 3 -108 29 0 30 0 0 140 0 140 -970 0 -970 0 0 -140z"/>
<path d="M275 633 c4 -10 26 -70 50 -133 24 -63 46 -123 50 -133 5 -11 16 -17
28 -15 15 2 31 33 74 146 31 79 53 146 50 149 -17 17 -38 -18 -77 -126 -23
-66 -46 -119 -50 -116 -4 2 -27 59 -50 125 -35 99 -46 120 -62 120 -15 0 -18
-4 -13 -17z"/>
<path d="M622 506 c-29 -79 -52 -146 -52 -150 0 -3 7 -6 15 -6 8 0 21 16 29
35 15 35 15 35 80 35 66 0 66 0 80 -35 8 -19 22 -35 30 -35 9 0 16 3 16 6 0 3
-23 70 -52 150 -44 124 -54 144 -72 144 -19 0 -29 -20 -74 -144z m106 11 c12
-33 22 -61 22 -63 0 -2 -25 -4 -55 -4 -30 0 -55 2 -55 5 0 2 8 26 18 52 11 26
22 57 26 67 9 25 18 14 44 -57z"/>
<path d="M872 503 l3 -148 69 0 c47 0 71 4 74 13 3 9 -12 12 -52 12 l-56 0 0
135 c0 129 -1 135 -20 135 -20 0 -20 -5 -18 -147z"/>
<path d="M1118 635 c-64 -35 -89 -145 -48 -213 38 -62 125 -91 183 -61 27 14
77 60 77 71 0 17 -38 7 -60 -17 -25 -26 -76 -41 -108 -31 -84 27 -106 160 -35
216 38 30 107 27 139 -5 14 -14 34 -25 45 -25 17 0 18 3 9 21 -29 53 -140 77
-202 44z"/>
<path d="M1392 503 c3 -131 5 -148 21 -151 15 -3 17 5 17 68 l0 71 78 -3 77
-3 3 -67 c2 -52 6 -68 17 -68 13 0 15 25 15 150 0 127 -2 150 -15 150 -12 0
-15 -14 -15 -65 l0 -65 -80 0 -80 0 0 65 c0 59 -2 65 -20 65 -20 0 -20 -5 -18
-147z"/>
<path d="M1690 499 c0 -138 1 -150 18 -147 15 3 17 20 20 151 2 142 2 147 -18
147 -19 0 -20 -6 -20 -151z"/>
<path d="M30 170 l0 -140 970 0 970 0 0 140 0 140 -30 0 -30 0 0 -105 0 -105
-910 0 -910 0 0 105 0 105 -30 0 -30 0 0 -140z"/>
</g>
</svg>
